<svg width="1500px" height="1500px" version="1.1" xmlns="http://www.w3.org/2000/svg">

    <path transform="scale(1, -1) translate(0, -1500)"
        d="M873 324L792 324L792 233Q792 137 724 68.50Q656 0 560 0L469 0L193 579Q226 641 291.50 675.50Q357 710 431 710Q494 710 552.50 684Q611 658 651 611L651 681L683 681L683 565L655 557Q616 614 558.50 646.50Q501 679 434 679Q416 679 407 678L706 95Q761 155 761 233L761 355L873 355L873 324M434 0L269 0Q173 0 104.50 68.50Q36 137 36 233Q36 303 75 362Q114 421 178 448Q171 461 171 494Q171 518 177 540L434 0M377 32L192 420Q136 396 102 345Q68 294 68 233Q68 150 127 91Q186 32 269 32L377 32Z"
        glyph-name="uni26" horiz-adv-x="909" unicode="&#x26;" vert-adv-y="1000" />

</svg>